PathFileType	4	(X/Y/Z)	/Users/itak/Documents/Research/Walk-IL/dataset/trc/00260_00009.trc
DataRate	CameraRate	NumFrames	NumMarkers	Units	OrigDataRate	OrigDataStartFrame	OrigNumFrames
100.000000	100.000000	4	53	mm	100.000000	246	493
Frame#	Time	RPSI			LPSI			L3			STRN			T10			C7			CLAV			RBAK			LBAK			LSHO			LUPA			LAEL			LAOL			LWTS			LWPS			LFRA			LIFD			LHPS			LHTS			RSHO			RUPA			RAEL			RAOL			RWTS			RWPS			RFRA			RIFD			RHTS			RHPS			RBHD			LFHD			RFHD			LBHD			LHIP			RHIP			RASI			LASI			LKNE			LTHI			LANK			LTIP			LTOE			LMT1			LMT5			LHEE			RKNE			RTHI			RTIP			RTOE			RMT1			RMT5			RHEE			RANK			
		X1	Y1	Z1	X2	Y2	Z2	X3	Y3	Z3	X4	Y4	Z4	X5	Y5	Z5	X6	Y6	Z6	X7	Y7	Z7	X8	Y8	Z8	X9	Y9	Z9	X10	Y10	Z10	X11	Y11	Z11	X12	Y12	Z12	X13	Y13	Z13	X14	Y14	Z14	X15	Y15	Z15	X16	Y16	Z16	X17	Y17	Z17	X18	Y18	Z18	X19	Y19	Z19	X20	Y20	Z20	X21	Y21	Z21	X22	Y22	Z22	X23	Y23	Z23	X24	Y24	Z24	X25	Y25	Z25	X26	Y26	Z26	X27	Y27	Z27	X28	Y28	Z28	X29	Y29	Z29	X30	Y30	Z30	X31	Y31	Z31	X32	Y32	Z32	X33	Y33	Z33	X34	Y34	Z34	X35	Y35	Z35	X36	Y36	Z36	X37	Y37	Z37	X38	Y38	Z38	X39	Y39	Z39	X40	Y40	Z40	X41	Y41	Z41	X42	Y42	Z42	X43	Y43	Z43	X44	Y44	Z44	X45	Y45	Z45	X46	Y46	Z46	X47	Y47	Z47	X48	Y48	Z48	X49	Y49	Z49	X50	Y50	Z50	X51	Y51	Z51	X52	Y52	Z52	X53	Y53	Z53	

247	2.46	-48.0180778503418	1041.24609375	84.12323760986328	-165.7636566162109	1040.163330078125	57.56819152832031	-119.5229721069336	1123.8544921875	70.99254608154297	-67.23897552490234	1307.676635742188	-181.2035522460938	-108.4198379516602	1251.075317382812	69.79270935058594	-97.85210418701172	1511.421752929688	4.328613758087158	-68.06341552734375	1425.45849609375	-156.7884979248047	-41.92678070068359	1371.149658203125	91.55797576904297	-209.2053527832031	1475.734252929688	6.837691783905029	-250.7500610351562	1474.927734375	-89.84114837646484	-334.1852416992188	1357.31787109375	-66.95763397216797	-361.2931823730469	1147.354248046875	-73.74245452880859	-312.2330017089844	1129.029052734375	-2.632367134094238	-311.0508728027344	912.9410400390625	-168.5843811035156	-390.8742980957031	897.9752197265625	-139.9649658203125	-378.9297180175781	1040.912109375	-94.90523529052734	-318.7526550292969	721.221923828125	-158.8954162597656	-386.8733825683594	808.5908203125	-153.6655120849609	-335.2826843261719	810.7633666992188	-197.7744445800781	77.17433929443359	1469.970336914062	-20.26871490478516	138.6915740966797	1405.782348632812	11.02481365203857	189.7010955810547	1127.865966796875	30.30796051025391	95.64094543457031	1114.931640625	42.26338958740234	192.6616668701172	927.5824584960938	-131.5249938964844	242.73828125	908.8031005859375	-66.45413208007812	212.1533050537109	1062.538818359375	1.536961793899536	196.19921875	740.3421630859375	-163.9205017089844	225.1258239746094	812.8690185546875	-179.4445343017578	261.0054626464844	807.953369140625	-116.484001159668	-35.95383071899414	1664.97900390625	-24.22290992736816	-95.19500732421875	1714.931030273438	-237.8824615478516	3.470088005065918	1712.056030273438	-220.7621612548828	-159.2987213134766	1676.041259765625	-91.26448059082031	-276.5868530273438	978.8052978515625	-74.05107879638672	79.09144592285156	1004.12451171875	14.71516227722168	72.10458374023438	1047.908325195312	-87.83284759521484	-205.3340148925781	1024.419067382812	-158.6564178466797	-185.6356811523438	526.343994140625	-257.1404724121094	-231.5084838867188	658.227783203125	-206.1023864746094	-168.0258941650391	48.90027236938477	-146.46728515625	-187.5841979980469	301.14208984375	-198.6388702392578	-107.4014205932617	66.87548828125	-352.4621276855469	-66.42195892333984	56.00460052490234	-284.9361877441406	-179.6583404541016	48.23216247558594	-272.8573608398438	-120.387336730957	59.13690185546875	-83.31455993652344	47.0717887878418	510.9566040039062	-24.45287322998047	95.56284332275391	778.72412109375	-42.50017166137695	28.32161521911621	391.2899475097656	-27.17969703674316	2.32761812210083	41.60073471069336	-143.0380401611328	-53.39321136474609	39.53078079223633	-101.9841995239258	42.44212341308594	31.12126159667969	-24.78447723388672	-87.44362640380859	35.0252799987793	115.9193649291992	-13.90197372436523	30.98791122436523	71.91100311279297	
248	2.47	-45.40362930297852	1040.682006835938	78.98728179931641	-163.155517578125	1039.598999023438	53.03536987304688	-116.9489288330078	1123.501953125	66.34867095947266	-65.99482727050781	1307.068725585938	-186.3513793945312	-105.9246520996094	1250.72021484375	64.98370361328125	-95.56322479248047	1510.986694335938	-0.8033682107925415	-66.72654724121094	1424.880249023438	-162.0576934814453	-39.17244720458984	1370.855590820312	86.23975372314453	-207.0004272460938	1475.26123046875	2.323570251464844	-249.0383911132812	1474.347534179688	-94.11869812011719	-332.1609497070312	1356.708984375	-70.848388671875	-359.431396484375	1146.758422851562	-77.97083282470703	-309.8141479492188	1127.94091796875	-7.342220306396484	-310.0835266113281	912.5388793945312	-173.8396453857422	-389.6109924316406	897.49853515625	-144.4793090820312	-377.3501281738281	1040.421264648438	-99.23154449462891	-317.4995727539062	720.7081909179688	-163.9597473144531	-385.6048889160156	808.0857543945312	-158.1101379394531	-334.4581298828125	810.2644653320312	-202.7407989501953	79.28926849365234	1469.494995117188	-26.4317684173584	140.8983154296875	1405.21337890625	4.496735572814941	191.6985931396484	1127.271362304688	23.57978248596191	97.72603607177734	1114.465454101562	36.04688262939453	193.4320983886719	926.5044555664062	-137.6710968017578	243.9356384277344	907.9478759765625	-72.93877410888672	213.8902435302734	1061.897705078125	-5.212424278259277	196.5437316894531	739.0961303710938	-169.3447418212891	225.4031219482422	811.5393676757812	-185.3944854736328	261.7561340332031	806.8956909179688	-122.7013931274414	-34.06255340576172	1664.366821289062	-29.63724899291992	-93.85697937011719	1714.459716796875	-243.1138763427734	4.843996047973633	1711.501953125	-226.2608337402344	-157.5890502929688	1675.545776367188	-96.33732604980469	-275.4261779785156	978.7971801757812	-77.30972290039062	81.27507019042969	1003.627380371094	9.000988960266113	73.93582916259766	1047.45849609375	-93.61769866943359	-203.81591796875	1024.042846679688	-163.0188751220703	-183.6540222167969	526.4623413085938	-262.1902770996094	-230.0941314697266	657.9462280273438	-210.6382141113281	-162.4697875976562	46.14758682250977	-166.6617736816406	-184.2338562011719	299.7317504882812	-210.6914825439453	-101.4542770385742	69.12171936035156	-372.0606689453125	-60.59714126586914	57.06959915161133	-304.7226257324219	-173.7849273681641	48.25608825683594	-293.0797729492188	-114.9745941162109	55.2701416015625	-103.2472686767578	47.81502532958984	510.435546875	-26.72645378112793	97.03952026367188	778.1176147460938	-47.30487823486328	28.73408508300781	390.9400329589844	-28.59108734130859	2.271636009216309	41.5418701171875	-143.1105346679688	-53.49814605712891	39.42712020874023	-102.0608978271484	42.39967346191406	31.13891792297363	-24.79344367980957	-87.51680755615234	35.16606521606445	115.8889770507812	-13.99098205566406	31.12116622924805	71.85263061523438	
249	2.48	-42.85386276245117	1040.0595703125	73.78114318847656	-160.6080780029297	1038.954223632812	48.3873405456543	-114.4348678588867	1123.090576171875	61.63484191894531	-64.76627349853516	1306.429077148438	-191.5337066650391	-103.5406341552734	1250.311645507812	60.11804962158203	-93.3648681640625	1510.495727539062	-5.962981700897217	-65.43155670166016	1424.265747070312	-167.3509674072266	-36.53046035766602	1370.517822265625	80.89787292480469	-204.8804168701172	1474.7294921875	-2.242096185684204	-247.3749084472656	1473.726684570312	-98.46126556396484	-330.1951293945312	1356.064697265625	-74.85604095458984	-357.6839904785156	1146.145141601562	-82.40768432617188	-307.6044006347656	1126.878784179688	-12.19196224212646	-309.1507873535156	912.1707153320312	-179.3554992675781	-388.4013061523438	897.0455322265625	-149.3509063720703	-375.8450012207031	1039.9248046875	-103.8427276611328	-316.3222351074219	720.228515625	-169.4442749023438	-384.4013977050781	807.6201782226562	-162.9813537597656	-333.6429748535156	809.8323974609375	-208.0743560791016	81.32437896728516	1468.984497070312	-32.5881233215332	143.01708984375	1404.607177734375	-2.01304817199707	193.5901641845703	1126.637451171875	16.89482879638672	99.71467590332031	1113.975708007812	29.88834381103516	194.0274353027344	925.3642578125	-143.7566528320312	244.9935150146484	907.0480346679688	-79.37484741210938	215.5108184814453	1061.210571289062	-11.91291618347168	196.7147521972656	737.7880249023438	-174.6493072509766	225.5014801025391	810.1417236328125	-191.2594909667969	262.3499450683594	805.7805786132812	-128.8486175537109	-32.26408386230469	1663.72314453125	-35.07489776611328	-92.60777282714844	1713.93359375	-248.3726196289062	6.125948429107666	1710.907470703125	-231.7830657958984	-155.9698333740234	1674.990356445312	-101.4384231567383	-274.2009887695312	978.691162109375	-80.76410675048828	83.43629455566406	1003.096130371094	3.255651712417603	75.74320220947266	1046.973876953125	-99.43473052978516	-202.2816314697266	1023.61962890625	-167.4953460693359	-181.7567901611328	526.4330444335938	-267.165771484375	-228.7300262451172	657.54150390625	-215.1950836181641	-157.2838745117188	43.78276824951172	-186.6325073242188	-181.1020660400391	298.4403991699219	-222.5801391601562	-95.90033721923828	71.50050354003906	-391.3408508300781	-55.16458892822266	58.33416366577148	-324.2055053710938	-168.3049011230469	48.53526306152344	-313.01123046875	-109.9140319824219	51.79616546630859	-122.9966430664062	48.55110168457031	509.9551391601562	-28.97229957580566	98.55207824707031	777.4954223632812	-52.088134765625	29.15535545349121	390.6159973144531	-29.96715545654297	2.207395076751709	41.47172927856445	-143.1814270019531	-53.60623168945312	39.32428359985352	-102.1166076660156	42.36071395874023	31.14710426330566	-24.80303573608398	-87.58097076416016	35.31464767456055	115.8586044311523	-14.07063961029053	31.24444961547852	71.79720306396484	
250	2.49	-40.37158203125	1039.379516601562	68.50188446044922	-158.125	1038.229614257812	43.62140655517578	-111.9831695556641	1122.613037109375	56.84017944335938	-63.55305099487305	1305.758056640625	-196.7553100585938	-101.2597503662109	1249.844360351562	55.19062042236328	-91.26129913330078	1509.945190429688	-11.15133094787598	-64.17583465576172	1423.614013671875	-172.6684265136719	-34.01000213623047	1370.127075195312	75.53060913085938	-202.8467559814453	1474.135986328125	-6.863092422485352	-245.7622222900391	1473.06494140625	-102.8745269775391	-328.2986145019531	1355.385498046875	-78.98558807373047	-356.0471801757812	1145.514038085938	-87.03828430175781	-305.6078796386719	1125.865844726562	-17.16732788085938	-308.2493286132812	911.8407592773438	-185.1219329833984	-387.2439880371094	896.6168823242188	-154.5713500976562	-374.4110107421875	1039.418334960938	-108.734130859375	-315.2237243652344	719.790283203125	-175.3685913085938	-383.2607727050781	807.1976318359375	-168.2841339111328	-332.8407897949219	809.4789428710938	-213.7809906005859	83.27912902832031	1468.434326171875	-38.7333869934082	145.0482940673828	1403.960815429688	-8.497012138366699	195.3820648193359	1125.961303710938	10.259521484375	101.6102828979492	1113.456909179688	23.79665756225586	194.4591827392578	924.1723022460938	-149.7897491455078	245.9231719970703	906.107421875	-85.77117919921875	217.0249633789062	1060.475952148438	-18.56153106689453	196.7220306396484	736.430419921875	-179.8586730957031	225.4275817871094	808.6903076171875	-197.0562133789062	262.7979125976562	804.6142578125	-134.943115234375	-30.55935859680176	1663.0439453125	-40.53201293945312	-91.44957733154297	1713.353515625	-253.6535949707031	7.314667224884033	1710.275634765625	-237.3236389160156	-154.4404602050781	1674.371215820312	-106.5622787475586	-272.8655395507812	978.4511108398438	-84.47914886474609	85.58887481689453	1002.529663085938	-2.518592596054077	77.54083251953125	1046.453491210938	-105.2814254760742	-200.7313842773438	1023.143798828125	-172.0966186523438	-179.9430999755859	526.2586059570312	-272.0957641601562	-227.4123077392578	657.0132446289062	-219.7866668701172	-152.4483032226562	41.783935546875	-206.2729644775391	-178.1673431396484	297.2589416503906	-234.2615203857422	-90.78940582275391	74.02075958251953	-410.2302551269531	-50.15077972412109	59.8028450012207	-343.320556640625	-163.2408905029297	49.06036758422852	-332.549560546875	-105.1761322021484	48.69309997558594	-142.4630737304688	49.28619766235352	509.51708984375	-31.19397163391113	100.0791320800781	776.85107421875	-56.86423110961914	29.58901405334473	390.3163757324219	-31.31511688232422	2.137333154678345	41.3924674987793	-143.2506103515625	-53.70529174804688	39.23288726806641	-102.152961730957	42.32794570922852	31.14599227905273	-24.81239891052246	-87.63571166992188	35.47190093994141	115.8286590576172	-14.14175415039062	31.35739707946777	71.74444580078125	
